HIERARCHY
ROOT Hips
{
  OFFSET 50.1642 54.9587 -8.37457
  CHANNELS 6 Xposition Yposition Zposition Zrotation Xrotation Yrotation
  JOINT spine
  {
    OFFSET 0 5.95438 0.342407
    CHANNELS 3 Zrotation Xrotation Yrotation
    JOINT spine1
    {
      OFFSET 0 8.85602 0
      CHANNELS 3 Zrotation Xrotation Yrotation
      JOINT spine2
      {
        OFFSET 0 8.48567 0
        CHANNELS 3 Zrotation Xrotation Yrotation
        JOINT Neck
        {
          OFFSET 0 21.7863 1.0387
          CHANNELS 3 Zrotation Xrotation Yrotation
          JOINT Head
          {
            OFFSET 0 6.5822 0
            CHANNELS 3 Zrotation Xrotation Yrotation
            End Site
            {
              OFFSET 0 15.9326 -5.25436
            }
          }
        }
        JOINT RightShoulder
        {
          OFFSET -3.57307 9.16386 -0.497525
          CHANNELS 3 Zrotation Xrotation Yrotation
          JOINT RightArm
          {
            OFFSET 0 12.0192 0
            CHANNELS 3 Zrotation Xrotation Yrotation
            JOINT RightArmRoll
            {
              OFFSET 0 6.06755 0
              CHANNELS 3 Zrotation Xrotation Yrotation
              JOINT RightForeArm
              {
                OFFSET 0 17.6726 0
                CHANNELS 3 Zrotation Xrotation Yrotation
                JOINT RightForeArmRoll
                {
                  OFFSET 0 6.80872 0
                  CHANNELS 3 Zrotation Xrotation Yrotation
                  JOINT RightHand
                  {
                    OFFSET 0 13.6636 0
                    CHANNELS 3 Zrotation Xrotation Yrotation
                    End Site
                    {
                      OFFSET 0 0 0
                    }
                  }
                }
              }
            }
          }
        }
        JOINT LeftShoulder
        {
          OFFSET 3.57307 9.16386 -0.497525
          CHANNELS 3 Zrotation Xrotation Yrotation
          JOINT LeftArm
          {
            OFFSET 0 12.0192 0
            CHANNELS 3 Zrotation Xrotation Yrotation
            JOINT LeftArmRoll
            {
              OFFSET 0 6.06755 0
              CHANNELS 3 Zrotation Xrotation Yrotation
              JOINT LeftForeArm
              {
                OFFSET 0 17.6726 0
                CHANNELS 3 Zrotation Xrotation Yrotation
                JOINT LeftForeArmRoll
                {
                  OFFSET 0 6.80873 0
                  CHANNELS 3 Zrotation Xrotation Yrotation
                  JOINT LeftHand
                  {
                    OFFSET 0 13.6636 0
                    CHANNELS 3 Zrotation Xrotation Yrotation
                    End Site
                    {
                      OFFSET 0 0 0
                    }
                  }
                }
              }
            }
          }
        }
      }
    }
  }
  JOINT RightUpLeg
  {
    OFFSET -5.27774 -0.967797 -0.811858
    CHANNELS 3 Zrotation Xrotation Yrotation
    JOINT RightUpLegRoll
    {
      OFFSET 0 16.0214 0
      CHANNELS 3 Zrotation Xrotation Yrotation
      JOINT RightLeg
      {
        OFFSET 0 -19.8401 0
        CHANNELS 3 Zrotation Xrotation Yrotation
        JOINT RightLegRoll
        {
          OFFSET 0 19.905 0
          CHANNELS 3 Zrotation Xrotation Yrotation
          JOINT RightFoot
          {
            OFFSET 0 16.5675 0
            CHANNELS 3 Zrotation Xrotation Yrotation
            JOINT RightToeBase
            {
              OFFSET 0 13.8496 0
              CHANNELS 3 Zrotation Xrotation Yrotation
              End Site
              {
                OFFSET 0.00587034 6.70728 -0.773116
              }
            }
          }
        }
      }
    }
  }
  JOINT LeftUpLeg
  {
    OFFSET 5.27774 -0.967797 -0.811858
    CHANNELS 3 Zrotation Xrotation Yrotation
    JOINT LeftUpLegRoll
    {
      OFFSET 0 16.0215 0
      CHANNELS 3 Zrotation Xrotation Yrotation
      JOINT LeftLeg
      {
        OFFSET 0 19.84 0
        CHANNELS 3 Zrotation Xrotation Yrotation
        JOINT LeftLegRoll
        {
          OFFSET 0 20.089 0
          CHANNELS 3 Zrotation Xrotation Yrotation
          JOINT LeftFoot
          {
            OFFSET 0 16.3835 0
            CHANNELS 3 Zrotation Xrotation Yrotation
            JOINT LeftToeBase
            {
              OFFSET 0 13.8496 0
              CHANNELS 3 Zrotation Xrotation Yrotation
              End Site
              {
                OFFSET -0.0263083 6.70727 -0.773117
              }
            }
          }
        }
      }
    }
  }
}
MOTION
Frames: 11
Frame Time: 0.00208333
49.8167 55.0172 -9.11352 -5.65452 5.0528 6.64322 0.908346 -0.0145551 0.0743879 1.81994 3.97332 0.0161901 1.82234 5.6179 -0.00316418 0.0282269 30.09 -3.67801 2.78676 12.3146 -3.77326 73.8207 -0.922216 -2.08671 102.432 36.0865 -8.48905 -1.65424e-006 2.53546e-007 1.07754e-005 -3.75684 -0.0392331 -1.99341 -6.73689e-006 4.9653e-007 -3.0116 8.03009 -4.95136 0.697629 -63.4359 -5.37138 3.55426 -115.824 33.998 20.3198 2.07225e-006 6.08194e-007 -2.69257e-007 3.79645 -0.0508905 1.99424 3.61723e-006 -4.49803e-007 3.0116 -8.03008 -4.9514 -0.697617 105.823 87.7439 75.094 180 7.01569e-015 179.022 -176.044 77.0454 173.168 -2.94178e-006 4.08915e-006 1.66026 -19.6178 68.6241 20.0784 8.13649 25.2327 -3.48774 70.713 87.8945 113.089 4.54188e-006 -4.6773e-006 -1.01529 14.4291 -73.1506 13.7719 -6.12739e-006 7.78811e-007 -1.5129 16.7928 63.765 -16.5088 -8.13649 25.2327 3.48774 
49.8619 55.0242 -9.12525 -5.64007 4.93331 6.61787 0.90613 -0.0125656 0.0743475 1.8155 3.9773 0.0164591 1.8179 5.62188 -0.00300164 0.0272596 30.0704 -3.66104 2.77482 12.3319 -3.75672 73.8725 -0.900009 -2.08192 102.383 36.0338 -8.44108 -1.65424e-006 2.53546e-007 1.07754e-005 -3.76129 -0.0393388 -1.99342 -6.73689e-006 4.9653e-007 -3.0116 8.03009 -4.95136 0.697629 -63.4762 -5.37756 3.56016 -115.797 33.9498 20.2797 2.07225e-006 6.08194e-007 -2.69257e-007 3.79571 -0.0506614 1.99423 3.61723e-006 -4.49803e-007 3.0116 -8.03008 -4.9514 -0.697617 107.842 87.7405 73.0848 180 7.01568e-015 179.019 -175.984 77.0705 173.116 -2.94178e-006 4.08915e-006 1.66166 -19.6131 68.6184 20.0733 8.13649 25.2327 -3.48774 72.77 87.9342 111.042 4.54188e-006 -4.6773e-006 -1.01747 14.4894 -73.1752 13.8238 -6.12739e-006 7.78811e-007 -1.51397 16.7927 63.7629 -16.5077 -8.13649 25.2327 3.48774 
49.9243 55.0272 -9.14561 -5.62848 4.81632 6.59097 0.903974 -0.0114493 0.0743198 1.81118 3.97953 0.0168234 1.81358 5.62412 -0.00286977 0.0358953 30.0536 -3.64657 2.7527 12.349 -3.73781 73.9315 -0.873225 -2.07585 102.325 35.9696 -8.38316 -1.65424e-006 2.53546e-007 1.07754e-005 -3.76454 -0.0392219 -1.99342 -6.73689e-006 4.9653e-007 -3.0116 8.03009 -4.95136 0.697629 -63.4982 -5.38656 3.56665 -115.786 33.8919 20.2533 2.07225e-006 6.08194e-007 -2.69257e-007 3.7931 -0.0501182 1.99419 3.61723e-006 -4.49803e-007 3.0116 -8.03008 -4.9514 -0.697617 109.776 87.7388 71.1641 180 7.01568e-015 179.016 -175.926 77.098 173.067 -2.94178e-006 4.08915e-006 1.66293 -19.608 68.6123 20.0678 8.13649 25.2327 -3.48774 74.7709 87.9731 109.054 4.54188e-006 -4.6773e-006 -1.01957 14.555 -73.2019 13.8804 -6.12739e-006 7.78811e-007 -1.51507 16.7925 63.7608 -16.5064 -8.13649 25.2327 3.48774 
49.8739 55.0079 -9.15741 -5.61921 4.70142 6.56178 0.901651 -0.011047 0.0743011 1.80653 3.98034 0.0173126 1.80892 5.62493 -0.00274674 0.0543406 30.0381 -3.63438 2.72105 12.3676 -3.71629 73.9993 -0.841161 -2.06833 102.257 35.894 -8.31464 -1.65424e-006 2.53546e-007 1.07754e-005 -3.76707 -0.0388993 -1.9934 -6.73689e-006 4.9653e-007 -3.0116 8.03009 -4.95136 0.697629 -63.5031 -5.39853 3.57386 -115.789 33.8242 20.2387 2.07225e-006 6.08194e-007 -2.69257e-007 3.78859 -0.0492603 1.99413 3.61723e-006 -4.49803e-007 3.0116 -8.03008 -4.9514 -0.697617 111.655 87.7397 69.2999 180 7.01567e-015 179.013 -175.871 77.1271 173.019 -2.94178e-006 4.08915e-006 1.66405 -19.6023 68.6055 20.0617 8.13649 25.2327 -3.48774 76.7327 88.0122 107.106 4.54188e-006 -4.6773e-006 -1.02156 14.6251 -73.2303 13.9412 -6.12739e-006 7.78811e-007 -1.5162 16.7925 63.7589 -16.5052 -8.13649 25.2327 3.48774 
49.888 54.9764 -9.17606 -5.61206 4.58835 6.53064 0.89922 -0.0112633 0.0742906 1.80166 3.97991 0.0179058 1.80404 5.62451 -0.00263636 0.0810206 30.0239 -3.62406 2.6813 12.3874 -3.69253 74.0744 -0.804584 -2.05955 102.18 35.8085 -8.23721 -1.65424e-006 2.53546e-007 1.07754e-005 -3.76889 -0.0383973 -1.99336 -6.73689e-006 4.9653e-007 -3.0116 8.03009 -4.95136 0.697629 -63.4934 -5.41293 3.58163 -115.804 33.7479 20.2342 2.07225e-006 6.08194e-007 -2.69257e-007 3.78241 -0.0481296 1.99405 3.61723e-006 -4.49803e-007 3.0116 -8.03008 -4.9514 -0.697617 113.493 87.7427 67.4802 180 7.01566e-015 179.01 -175.817 77.1579 172.972 -2.94178e-006 4.08915e-006 1.66505 -19.5961 68.5981 20.0551 8.13649 25.2327 -3.48774 78.6704 88.0513 105.185 4.54188e-006 -4.6773e-006 -1.02348 14.6997 -73.2604 14.0059 -6.12739e-006 7.78811e-007 -1.51738 16.7925 63.7572 -16.504 -8.13649 25.2327 3.48774 
49.8822 54.967 -9.18995 -5.60682 4.47682 6.49791 0.896741 -0.0120024 0.0742873 1.79669 3.97843 0.0185825 1.79906 5.62303 -0.00254242 0.114361 30.0109 -3.61522 2.6349 12.4081 -3.66691 74.1555 -0.76426 -2.04972 102.096 35.7149 -8.15257 -1.65424e-006 2.53546e-007 1.07754e-005 -3.77006 -0.0377418 -1.99332 -6.73689e-006 4.9653e-007 -3.0116 8.03009 -4.95136 0.697629 -63.4717 -5.42928 3.58983 -115.83 33.6644 20.2379 2.07225e-006 6.08194e-007 -2.69257e-007 3.77481 -0.0467679 1.99396 3.61723e-006 -4.49803e-007 3.0116 -8.03008 -4.9514 -0.697617 115.299 87.7473 65.6944 180 7.01565e-015 179.007 -175.764 77.1903 172.926 -2.94178e-006 4.08915e-006 1.66596 -19.5895 68.5903 20.048 8.13649 25.2327 -3.48774 80.5985 88.0902 103.275 4.54188e-006 -4.6773e-006 -1.02533 14.7785 -73.292 14.0745 -6.12739e-006 7.78811e-007 -1.51859 16.7925 63.7556 -16.5029 -8.13649 25.2327 3.48774 
49.8872 54.9678 -9.19673 -5.60331 4.36658 6.46392 0.894273 -0.013169 0.0742906 1.79174 3.9761 0.019322 1.79411 5.62071 -0.00246873 0.152788 29.9992 -3.60745 2.58329 12.4293 -3.6398 74.2409 -0.720957 -2.03902 102.006 35.6147 -8.0624 -1.65424e-006 2.53546e-007 1.07754e-005 -3.77059 -0.036959 -1.99327 -6.73689e-006 4.9653e-007 -3.0116 8.03009 -4.95136 0.697629 -63.4406 -5.44705 3.59831 -115.863 33.5749 20.2479 2.07225e-006 6.08194e-007 -2.69257e-007 3.76603 -0.045217 1.99385 3.61723e-006 -4.49803e-007 3.0116 -8.03008 -4.9514 -0.697617 117.081 87.7529 63.9343 180 7.01565e-015 179.003 -175.712 77.2243 172.881 -2.94178e-006 4.08915e-006 1.66682 -19.5827 68.5822 20.0407 8.13649 25.2327 -3.48774 82.532 88.1287 101.361 4.54188e-006 -4.6773e-006 -1.02714 14.8615 -73.3252 14.1467 -6.12739e-006 7.78811e-007 -1.51984 16.7926 63.754 -16.5016 -8.13649 25.2327 3.48774 
49.8871 54.9511 -9.21293 -5.60131 4.25734 6.42904 0.891875 -0.0146675 0.0742995 1.78693 3.97311 0.0201036 1.78929 5.61772 -0.00241908 0.19473 29.9886 -3.60034 2.52792 12.4509 -3.61158 74.3294 -0.67544 -2.02765 101.914 35.5096 -7.96836 -1.65424e-006 2.53546e-007 1.07754e-005 -3.77052 -0.036075 -1.99321 -6.73689e-006 4.9653e-007 -3.0116 8.03009 -4.95136 0.697629 -63.4026 -5.46573 3.60693 -115.901 33.4805 20.2623 2.07225e-006 6.08194e-007 -2.69257e-007 3.75631 -0.0435189 1.99373 3.61723e-006 -4.49803e-007 3.0116 -8.03008 -4.9514 -0.697617 118.845 87.759 62.1939 180 7.01564e-015 179 -175.661 77.26 172.837 -2.94178e-006 4.08915e-006 1.66763 -19.5757 68.5739 20.0332 8.13649 25.2327 -3.48774 84.4853 88.1665 99.4289 4.54188e-006 -4.6773e-006 -1.02892 14.9484 -73.3599 14.2226 -6.12739e-006 7.78811e-007 -1.52112 16.7926 63.7523 -16.5003 -8.13649 25.2327 3.48774 
49.7888 54.987 -9.20763 -5.60062 4.14884 6.3936 0.889606 -0.0164022 0.0743134 1.78237 3.96964 0.0209066 1.78473 5.61425 -0.00239726 0.238613 29.9792 -3.59351 2.47021 12.4724 -3.58264 74.4194 -0.628476 -2.01581 101.819 35.401 -7.8721 -1.65424e-006 2.53546e-007 1.07754e-005 -3.76989 -0.0351159 -1.99315 -6.73689e-006 4.9653e-007 -3.0116 8.03009 -4.95136 0.697629 -63.3603 -5.48482 3.61553 -115.943 33.3827 20.2793 2.07225e-006 6.08194e-007 -2.69257e-007 3.7459 -0.0417153 1.99361 3.61723e-006 -4.49803e-007 3.0116 -8.03008 -4.9514 -0.697617 120.595 87.7649 60.4685 180 7.01563e-015 178.996 -175.61 77.2973 172.792 -2.94178e-006 4.08915e-006 1.66843 -19.5686 68.5656 20.0257 8.13649 25.2327 -3.48774 86.473 88.203 97.4632 4.54188e-006 -4.6773e-006 -1.03071 15.0393 -73.396 14.3018 -6.12739e-006 7.78811e-007 -1.52244 16.7925 63.7503 -16.4988 -8.13649 25.2327 3.48774 
49.7999 54.9611 -9.22642 -5.60104 4.04081 6.35795 0.887526 -0.0182776 0.0743314 1.7782 3.96589 0.0217105 1.78055 5.61051 -0.00240709 0.282865 29.971 -3.58654 2.41163 12.4937 -3.55335 74.5096 -0.580834 -2.00368 101.724 35.2908 -7.77526 -1.65424e-006 2.53546e-007 1.07754e-005 -3.76873 -0.0341077 -1.99308 -6.73689e-006 4.9653e-007 -3.0116 8.03009 -4.95136 0.697629 -63.3164 -5.50381 3.62398 -115.986 33.2826 20.297 2.07225e-006 6.08194e-007 -2.69257e-007 3.73503 -0.0398482 1.99348 3.61723e-006 -4.49803e-007 3.0116 -8.03008 -4.9514 -0.697617 122.334 87.77 58.756 180 7.01562e-015 178.992 -175.56 77.3362 172.748 -2.94178e-006 4.08915e-006 1.66925 -19.5617 68.5573 20.0183 8.13649 25.2327 -3.48774 88.5079 88.2379 95.4511 4.54188e-006 -4.6773e-006 -1.03251 15.1339 -73.4334 14.3844 -6.12739e-006 7.78811e-007 -1.52379 16.7923 63.748 -16.4971 -8.13649 25.2327 3.48774 
49.8584 54.8686 -9.25048 -5.60236 3.93298 6.32245 0.885693 -0.0201982 0.0743526 1.77452 3.96205 0.0224945 1.77687 5.60667 -0.00245234 0.325915 29.964 -3.57903 2.35361 12.5143 -3.5241 74.5984 -0.533279 -1.99147 101.631 35.1805 -7.67943 -1.65424e-006 2.53546e-007 1.07754e-005 -3.76707 -0.0330766 -1.99301 -6.73689e-006 4.9653e-007 -3.0116 8.03009 -4.95136 0.697629 -63.2733 -5.52218 3.63213 -116.028 33.1814 20.3137 2.07225e-006 6.08194e-007 -2.69257e-007 3.72396 -0.0379594 1.99335 3.61723e-006 -4.49803e-007 3.0116 -8.03008 -4.9514 -0.697617 124.061 87.7737 57.0558 180 7.01562e-015 178.988 -175.511 77.3768 172.704 -2.94178e-006 4.08915e-006 1.67011 -19.5549 68.5492 20.011 8.13649 25.2327 -3.48774 90.6027 88.2707 93.3798 4.54188e-006 -4.6773e-006 -1.03435 15.2321 -73.4721 14.4702 -6.12739e-006 7.78811e-007 -1.52517 16.792 63.7454 -16.4951 -8.13649 25.2327 3.48774 
